<?xml version="1.0" standalone="no"?><!DOCTYPE svg PUBLIC "-//W3C//DTD SVG 1.1//EN" "http://www.w3.org/Graphics/SVG/1.1/DTD/svg11.dtd"><svg class="icon" width="48px" height="48.00px" viewBox="0 0 1024 1024" version="1.1" xmlns="http://www.w3.org/2000/svg"><path fill="#ffffff" d="M752.863 536.011c0.553-1.107 1.522-2.076 1.937-3.182 9.687-20.205 6.505-45.114-10.655-61.306l-391.083-369.909c-21.312-20.205-54.94-19.235-75.145 2.075s-19.235 54.94 2.075 75.145l350.951 331.993-349.566 336.835c-21.173 20.346-21.727 53.971-1.382 75.145 10.38 10.794 24.356 16.329 38.195 16.33 13.284 0 26.571-4.982 36.811-14.947l387.485-373.507c0.692-0.692 0.969-1.798 1.798-2.491 0.554-0.554 1.107-0.969 1.798-1.522 3.182-3.182 4.705-7.058 6.78-10.655v0zM752.863 536.011z" /></svg>