<?xml version="1.0" standalone="no"?><!DOCTYPE svg PUBLIC "-//W3C//DTD SVG 1.1//EN" "http://www.w3.org/Graphics/SVG/1.1/DTD/svg11.dtd"><svg class="icon" width="48px" height="48.00px" viewBox="0 0 1024 1024" version="1.1" xmlns="http://www.w3.org/2000/svg"><path fill="#5C5C5C" d="M512.884836 964.364212c-246.901118 0-447.748142-200.868345-447.748142-447.748142s200.847024-447.748142 447.748142-447.748142 447.748142 200.847024 447.748142 447.748142S759.785954 964.364212 512.884836 964.364212zM512.884836 111.489287c-223.38368 0-405.105462 181.721781-405.105462 405.105462s181.721781 405.105462 405.105462 405.105462 405.105462-181.721781 405.105462-405.105462C917.990297 293.23239 736.268516 111.489287 512.884836 111.489287zM215.473463 400.9478c-27.866991 83.920795-22.366086 168.886335 14.114727 249.075895 11.385596 25.009932 48.122265 3.304808 36.821954-21.534553-31.747475-69.763425-33.900931-143.705832-9.807816-216.198388C265.280113 386.108148 224.087284 374.999729 215.473463 400.9478M512.9488 708.465488c-17.099715 0-28.48531-8.827035-73.963729-46.267308-9.829138-8.059467-19.061278-15.671185-25.500323-20.575093-48.825869-37.099132-109.46376-83.21719-109.46376-175.96502 0-79.059529 61.938493-140.955379 140.998022-140.955379 24.007829 0 47.973015 6.886793 67.887147 19.25317 19.935453-12.366377 43.879318-19.25317 67.887147-19.25317 79.059529 0 140.976701 61.917172 140.976701 140.955379 0 92.939721-60.552606 138.908531-109.229225 175.81577-6.609615 5.031836-16.033648 12.792804-26.033356 21.022841C541.306182 699.681096 530.005872 708.465488 512.9488 708.465488zM444.997689 367.324047c-55.136985 0-98.355342 43.175714-98.355342 98.312699 0 71.59706 47.056198 107.374269 92.555937 141.978804 6.822829 5.181086 16.524039 13.133945 26.864889 21.64116 15.863077 13.04866 39.359194 32.408437 46.885627 36.224957 7.462469-3.81652 30.724051-22.984405 46.437879-35.926458 10.468778-8.635143 20.36188-16.737252 27.312637-22.024944 45.457097-34.497928 92.406688-70.125888 92.406688-141.893518 0-55.136985-43.197035-98.312699-98.33402-98.312699-19.636954 0-39.892227 7.16397-54.156204 19.189206L512.884836 398.069419l-13.730943-11.556166C484.889916 374.509338 464.634643 367.324047 444.997689 367.324047z" /></svg>