<?xml version="1.0" standalone="no"?><!DOCTYPE svg PUBLIC "-//W3C//DTD SVG 1.1//EN" "http://www.w3.org/Graphics/SVG/1.1/DTD/svg11.dtd"><svg class="icon" width="48px" height="48.00px" viewBox="0 0 1024 1024" version="1.1" xmlns="http://www.w3.org/2000/svg"><path fill="#5C5C5C" d="M511.968 660.032c-81.92 0-148.576-66.432-148.576-148.064s66.656-148.032 148.576-148.032c81.952 0 148.608 66.416 148.608 148.032s-66.656 148.064-148.608 148.064z m0-235.904c-48.736 0-88.368 39.408-88.368 87.84s39.648 87.856 88.368 87.856c48.768 0 88.4-39.424 88.4-87.856s-39.632-87.84-88.4-87.84zM330.848 782.336a324.384 324.384 0 0 1-145.152-270.384c0-104.208 50.752-202.832 135.744-263.808l35.088 48.912C287.232 346.752 245.872 427.088 245.872 511.936c0.016 88.592 44.256 170.96 118.336 220.32l-33.36 50.08zM685.456 781.792l-33.392-50.08a264.592 264.592 0 0 0 118.336-220.32c0-84.832-41.36-165.168-110.656-214.88l35.088-48.912c84.992 60.992 135.76 159.616 135.76 263.808a324.576 324.576 0 0 1-145.136 270.384zM258.016 945.616c-154.24-89.76-250.048-255.92-250.016-433.68C8 334.24 103.776 168.128 257.952 78.4l30.272 52.016C152.512 209.424 68.208 355.6 68.208 511.936c-0.032 156.384 84.32 302.656 220.096 381.648l-30.288 52.032zM766.08 945.552l-30.288-52.016c135.696-79.008 220.016-225.248 220.016-381.6 0-156.352-84.336-302.544-220.112-381.52l30.288-52.016C920.224 168.08 1016 334.208 1016 511.936s-95.76 343.872-249.92 433.616z" /></svg>