<?xml version="1.0" standalone="no"?><!DOCTYPE svg PUBLIC "-//W3C//DTD SVG 1.1//EN" "http://www.w3.org/Graphics/SVG/1.1/DTD/svg11.dtd"><svg class="icon" width="48px" height="48.00px" viewBox="0 0 1024 1024" version="1.1" xmlns="http://www.w3.org/2000/svg"><path fill="#5C5C5C" d="M511.983616 923.3408a56.7296 56.7296 0 0 1-34.510848-11.784192c-6.670336-5.156864-67.21536-52.221952-138.665984-116.80768-95.240192-86.104064-163.55328-161.173504-203.044864-223.11936-17.915904-28.135424-35.088384-55.98208-48.316416-87.345152-15.777792-37.410816-23.447552-74.409984-23.447552-113.115136 0-71.305216 25.616384-138.58816 72.128512-189.452288 47.796224-52.267008 111.755264-81.055744 180.084736-81.055744 76.496896 0 148.373504 37.494784 195.782656 100.100096 47.425536-62.605312 119.312384-100.100096 195.7888-100.100096 68.32128 0 132.276224 28.788736 180.076544 81.055744 46.52032 50.866176 72.138752 118.14912 72.138752 189.452288 0 87.808-41.494528 152.915968-71.794688 200.456192-39.477248 61.949952-107.788288 137.02144-203.036672 223.123456-71.448576 64.587776-132.00384 111.65696-138.674176 116.813824a56.717312 56.717312 0 0 1-34.5088 11.778048zM316.213248 153.40544c-53.344256 0-103.473152 22.695936-141.162496 63.90784-37.597184 41.115648-58.304512 95.752192-58.304512 153.853952 0 31.522816 6.313984 61.822976 19.300352 92.614656 11.636736 27.594752 27.5456 53.348352 44.199936 79.499264 89.296896 140.081152 319.715328 318.994432 329.48224 326.541312 0.823296 0.638976 1.67936 0.768 2.254848 0.768 0.577536 0 1.437696-0.13312 2.267136-0.772096 9.762816-7.540736 240.19968-186.454016 329.472-326.545408 29.782016-46.718976 63.524864-99.67616 63.524864-172.10368 0-58.097664-20.707328-112.738304-58.312704-153.853952-37.689344-41.213952-87.814144-63.90784-141.152256-63.90784-70.8096 0-136.912896 41.61536-172.500992 108.609536a26.370048 26.370048 0 0 1-46.583808-0.006144c-35.567616-66.99008-101.658624-108.60544-172.484608-108.60544z m0 0" /></svg>