<?xml version="1.0" standalone="no"?><!DOCTYPE svg PUBLIC "-//W3C//DTD SVG 1.1//EN" "http://www.w3.org/Graphics/SVG/1.1/DTD/svg11.dtd"><svg class="icon" width="48px" height="36.82px" viewBox="0 0 1335 1024" version="1.1" xmlns="http://www.w3.org/2000/svg"><path fill="#ffffff" d="M736.0019 512.152039L1099.301809 148.85213c18.341969-18.341969 18.341969-48.579458 0-66.909263l-1.982587-1.982587c-18.341969-18.329806-48.579458-18.329806-66.909263 0l-363.299909 363.798596-363.299909-363.798596c-18.341969-18.329806-48.579458-18.329806-66.909263 0l-1.982587 1.982587c-18.840656 18.341969-18.840656 48.579458 0 66.909263l363.299909 363.299909-363.299909 363.299908c-18.341969 18.341969-18.341969 48.579458 0 66.909264l1.982587 1.982587c18.341969 18.341969 48.579458 18.341969 66.909263 0l363.299909-363.299909L1030.409959 944.343798c18.341969 18.341969 48.579458 18.341969 66.909263 0l1.982587-1.982587c18.341969-18.341969 18.341969-48.579458 0-66.909264L736.0019 512.152039z m0 0"  /></svg>