<?xml version="1.0" standalone="no"?><!DOCTYPE svg PUBLIC "-//W3C//DTD SVG 1.1//EN" "http://www.w3.org/Graphics/SVG/1.1/DTD/svg11.dtd"><svg class="icon" width="48px" height="48.00px" viewBox="0 0 1024 1024" version="1.1" xmlns="http://www.w3.org/2000/svg"><path fill="#5C5C5C" d="M118 65.6h288.1M409.8 614.3c-70.8 0-137.3-27.6-187.3-77.6-50-50-77.6-116.6-77.6-187.3s27.6-137.3 77.6-187.3c50-50 116.6-77.6 187.3-77.6s137.3 27.6 187.3 77.6c50 50 77.6 116.6 77.6 187.3s-27.6 137.3-77.6 187.3-116.6 77.6-187.3 77.6z m0-487.8c-122.9 0-222.9 100-222.9 222.9s100 222.9 222.9 222.9 222.9-100 222.9-222.9-100-222.9-222.9-222.9z"  /><path fill="#5C5C5C" d="M732.5 939.5c-11.6 0-21-9.4-21-21 0-166.4-135.4-301.8-301.8-301.8-166.3 0-301.7 135.4-301.7 301.8 0 11.6-9.4 21-21 21s-21-9.4-21-21c0-46.4 9.1-91.4 27-133.8 17.3-40.9 42.1-77.7 73.7-109.3 31.6-31.6 68.3-56.3 109.3-73.7 42.4-17.9 87.4-27 133.8-27s91.4 9.1 133.8 27c40.9 17.3 77.7 42.1 109.3 73.7 31.6 31.6 56.3 68.3 73.7 109.3 17.9 42.4 27 87.4 27 133.8-0.1 11.6-9.5 21-21.1 21z"  /><path fill="#5C5C5C" d="M675.4 598.9c-11.6 0-21-9.4-21-21s9.4-21 21-21c97.4 0 176.7-79.3 176.7-176.7 0-97.4-79.3-176.7-176.7-176.7-11.6 0-21-9.4-21-21s9.4-21 21-21c58.4 0 113.3 22.8 154.7 64.1 41.3 41.3 64.1 96.2 64.1 154.7 0 58.4-22.8 113.3-64.1 154.7-41.4 41.2-96.3 63.9-154.7 63.9z"  /><path fill="#5C5C5C" d="M937 862.5c-11.6 0-21-9.4-21-21 0-132.7-107.9-240.6-240.6-240.6-11.6 0-21-9.4-21-21s9.4-21 21-21c75.5 0 146.5 29.4 199.8 82.8C928.6 695 958 766 958 841.5c0 11.6-9.4 21-21 21z"  /></svg>