<?xml version="1.0" standalone="no"?><!DOCTYPE svg PUBLIC "-//W3C//DTD SVG 1.1//EN" "http://www.w3.org/Graphics/SVG/1.1/DTD/svg11.dtd"><svg class="icon" width="48px" height="48.00px" viewBox="0 0 1024 1024" version="1.1" xmlns="http://www.w3.org/2000/svg"><path fill="#ffffff" d="M836.266667 163.84c-6.826667 0-13.653333 1.706667-18.773334 6.826667L366.933333 484.693333c-15.36 10.24-18.773333 32.426667-8.533333 47.786667 1.706667 3.413333 5.12 6.826667 8.533333 8.533333L817.493333 853.333333c15.36 10.24 37.546667 6.826667 47.786667-8.533333 3.413333-5.12 6.826667-11.946667 6.826667-18.773333V197.973333c-1.706667-18.773333-17.066667-34.133333-35.84-34.133333zM273.066667 170.666667c-18.773333 0-34.133333 15.36-34.133334 34.133333v614.4c0 18.773333 15.36 34.133333 34.133334 34.133333s34.133333-15.36 34.133333-34.133333V204.8c0-18.773333-15.36-34.133333-34.133333-34.133333z" /></svg>