<?xml version="1.0" standalone="no"?><!DOCTYPE svg PUBLIC "-//W3C//DTD SVG 1.1//EN" "http://www.w3.org/Graphics/SVG/1.1/DTD/svg11.dtd"><svg class="icon" width="48px" height="48.00px" viewBox="0 0 1024 1024" version="1.1" xmlns="http://www.w3.org/2000/svg"><path fill="#333333" d="M258.88067808 871.57559944C190.23442695 871.57559944 133.02921829 816.00482477 133.02921829 745.72413963s55.57077467-125.8514598 125.8514598-125.8514598c27.78538697 0 53.93633993 9.806607 76.81842337 26.15095295l6.53773824 4.9033035V247.22160393c0-24.5165182 19.61321471-44.12973291 42.49529819-44.12973223l420.04967758-49.03303639h3.26886876C830.93276841 152.42440056 852.18041715 172.03761528 852.18041715 196.55413345v472.35158278c0 34.3231252-13.07547648 65.37738164-37.5919947 88.25946514-22.88208346 22.88208346-55.57077467 35.95755995-88.2594651 35.95755994-68.64625112 0-125.8514598-55.57077467-125.85145981-125.8514598 0-68.64625112 55.57077467-125.8514598 125.85145981-125.85145981 27.78538697 0 55.57077467 9.806607 76.81842337 26.15095297l6.53773824 4.90330348V353.45984902l-424.95298107 45.76416767v346.50012293c-1.63443474 70.28068515-57.20520869 125.8514598-125.85145981 125.85145981z m1e-8-207.5731867c-45.76416694 0-83.35616163 37.59199468-83.35616163 83.35616163s37.59199468 83.35616163 83.35616163 83.35616162 83.35616163-37.59199468 83.35616161-83.35616162c-1.63443474-47.39860168-37.59199468-83.35616163-83.35616161-83.35616163z m467.44827926-78.45285811c-45.76416694 0-83.35616163 37.59199468-83.35616162 83.35616161s37.59199468 83.35616163 83.35616162 83.35616162 83.35616163-37.59199468 83.35616161-83.35616162-37.59199468-83.35616163-83.35616161-83.35616161z m-343.23125421-228.82083614l424.95298109-45.76416694V194.91969875l-420.04967756 49.03303643h-4.90330353v112.77598331z"  /></svg>