<?xml version="1.0" standalone="no"?><!DOCTYPE svg PUBLIC "-//W3C//DTD SVG 1.1//EN" "http://www.w3.org/Graphics/SVG/1.1/DTD/svg11.dtd"><svg class="icon" width="48px" height="48.00px" viewBox="0 0 1024 1024" version="1.1" xmlns="http://www.w3.org/2000/svg"><path fill="#787878" d="M476.8 72c57.6-44.8 102.4-20.8 102.4 51.2l0 784c0 68.8-44.8 89.6-96 44.8L252.8 763.2 126.4 763.2c-72 0-126.4-57.6-126.4-126.4L0 379.2c0-68.8 57.6-126.4 126.4-126.4l120 0L476.8 72zM712 718.4c-14.4 0-24-6.4-30.4-14.4-20.8-20.8-20.8-44.8 0-62.4 75.2-75.2 75.2-188.8 0-264-20.8-20.8-20.8-44.8 0-62.4 20.8-20.8 44.8-20.8 65.6 0 116.8 105.6 116.8 276.8 0 384C729.6 715.2 726.4 718.4 712 718.4zM838.4 790.4c-20.8-20.8-20.8-44.8 0-62.4 120-120 120-308.8 0-428.8-20.8-20.8-20.8-44.8 0-62.4 20.8-20.8 44.8-20.8 65.6 0 75.2 75.2 120 171.2 120 270.4s-44.8 201.6-120 270.4c-6.4 6.4-20.8 14.4-30.4 14.4C859.2 801.6 846.4 793.6 838.4 790.4z" /></svg>