<?xml version="1.0" standalone="no"?><!DOCTYPE svg PUBLIC "-//W3C//DTD SVG 1.1//EN" "http://www.w3.org/Graphics/SVG/1.1/DTD/svg11.dtd"><svg class="icon" width="48px" height="48.00px" viewBox="0 0 1024 1024" version="1.1" xmlns="http://www.w3.org/2000/svg"><path fill="#5C5C5C" d="M34.944243 1023.999488a25.599987 25.599987 0 0 1-18.175991-7.423996A25.599987 25.599987 0 0 1 9.344256 998.399501V739.32763a25.599987 25.599987 0 0 1 51.199974 0V972.799514l902.911549-4.607998v-228.863886a25.599987 25.599987 0 0 1 51.199974 0v254.463873a25.599987 25.599987 0 0 1-25.599987 25.599987L34.944243 1023.999488z"  /><path fill="#5C5C5C" d="M513.920004 764.927618a25.599987 25.599987 0 0 1-17.407992-6.911997L128.896196 420.86379A25.599987 25.599987 0 0 1 162.944179 383.999808l350.719825 320.25584 346.623827-325.119838a25.599987 25.599987 0 0 1 35.071982 37.119982L531.327995 758.015621a25.599987 25.599987 0 0 1-17.407991 6.911997z"  /><path fill="#5C5C5C" d="M513.664004 748.031626a25.599987 25.599987 0 0 1-25.599987-25.599987L484.224019 25.599987a25.599987 25.599987 0 0 1 25.599987-25.599987 25.599987 25.599987 0 0 1 25.599987 25.599987l3.839998 696.831652a25.599987 25.599987 0 0 1-25.599987 25.599987z"  /></svg>