<?xml version="1.0" standalone="no"?><!DOCTYPE svg PUBLIC "-//W3C//DTD SVG 1.1//EN" "http://www.w3.org/Graphics/SVG/1.1/DTD/svg11.dtd"><svg class="icon" width="48px" height="48.00px" viewBox="0 0 1024 1024" version="1.1" xmlns="http://www.w3.org/2000/svg"><path fill="#ffffff" d="M865.682 310.086H311.007c-14.634 0-26.403 11.974-26.403 26.71v86.886h-92.31c-14.634 0-26.403 11.973-26.403 26.71V800.39c0 14.635 11.769 26.506 26.403 26.506H746.97c14.635 0 26.71-11.871 26.71-26.506V713.3h92.003c14.635 0 26.71-11.871 26.71-26.506V336.796c0-14.736-12.075-26.71-26.71-26.71z m-137.031 471.78H210.818V468.712H728.65v313.156z m118.713-113.595H773.68V450.392c0-14.634-12.076-26.71-26.71-26.71H329.53v-68.567h517.834V668.27z" /></svg>